<svg width="124" height="24" viewBox="0 0 124 24" fill="none" xmlns="http://www.w3.org/2000/svg">
<path d="M6.84 20.592C2.808 20.592 0 17.496 0 13.224C0 8.952 2.808 5.856 6.84 5.856C8.688 5.856 10.032 6.504 10.872 7.632C10.872 6.83671 11.5167 6.192 12.312 6.192H13.008C14.1877 6.192 15.144 7.14832 15.144 8.328V18.12C15.144 19.2997 14.1877 20.256 13.008 20.256H12.312C11.5167 20.256 10.872 19.6113 10.872 18.816C10.032 19.944 8.688 20.592 6.84 20.592ZM7.512 16.944C9.6 16.944 10.944 15.384 10.944 13.224C10.944 11.064 9.6 9.504 7.512 9.504C5.472 9.504 4.176 11.064 4.176 13.224C4.176 15.384 5.472 16.944 7.512 16.944Z" fill="#F89A05"/>
<path d="M20.5044 0.0959988C21.6841 0.0959988 22.6404 1.05232 22.6404 2.232V18.12C22.6404 19.2997 21.6841 20.256 20.5044 20.256C19.3248 20.256 18.3684 19.2997 18.3684 18.12V2.232C18.3684 1.05232 19.3248 0.0959988 20.5044 0.0959988Z" fill="#F89A05"/>
<path d="M34.149 20.592C32.301 20.592 30.957 19.944 30.117 18.816C30.117 19.6113 29.4723 20.256 28.677 20.256H27.981C26.8013 20.256 25.845 19.2997 25.845 18.12V2.232C25.845 1.05232 26.8013 0.0959988 27.981 0.0959988C29.1607 0.0959988 30.117 1.05232 30.117 2.232V7.632C30.957 6.504 32.301 5.856 34.149 5.856C38.181 5.856 40.989 8.952 40.989 13.224C40.989 17.496 38.181 20.592 34.149 20.592ZM33.477 16.944C35.517 16.944 36.813 15.384 36.813 13.224C36.813 11.064 35.517 9.504 33.477 9.504C31.389 9.504 30.045 11.064 30.045 13.224C30.045 15.384 31.389 16.944 33.477 16.944Z" fill="#F89A05"/>
<path d="M49.6134 20.592C45.5814 20.592 42.7734 17.496 42.7734 13.224C42.7734 8.952 45.5814 5.856 49.6134 5.856C51.4614 5.856 52.8054 6.504 53.6454 7.632C53.6454 6.83671 54.2901 6.192 55.0854 6.192H55.7814C56.9611 6.192 57.9174 7.14832 57.9174 8.328V18.12C57.9174 19.2997 56.9611 20.256 55.7814 20.256H55.0854C54.2901 20.256 53.6454 19.6113 53.6454 18.816C52.8054 19.944 51.4614 20.592 49.6134 20.592ZM50.2854 16.944C52.3734 16.944 53.7174 15.384 53.7174 13.224C53.7174 11.064 52.3734 9.504 50.2854 9.504C48.2454 9.504 46.9494 11.064 46.9494 13.224C46.9494 15.384 48.2454 16.944 50.2854 16.944Z" fill="#F89A05"/>
<path d="M67.4899 6.192C68.5039 6.192 69.3259 7.014 69.3259 8.028C69.3259 9.04199 68.5039 9.864 67.4899 9.864H66.6379V18.12C66.6379 19.2997 65.6816 20.256 64.5019 20.256C63.3222 20.256 62.3659 19.2997 62.3659 18.12V9.864H61.8499C60.8359 9.864 60.0139 9.04199 60.0139 8.028C60.0139 7.014 60.8359 6.192 61.8499 6.192H62.3659V4.8C62.3659 2.04 64.0939 0 67.1419 0C67.2967 0 67.4503 0.00221827 67.6015 0.00665483C68.4651 0.0320078 69.0859 0.772048 69.0859 1.63608V2.61403C69.0859 3.19555 68.5634 3.672 67.9819 3.672C67.1419 3.672 66.6379 4.2 66.6379 5.04V6.192H67.4899Z" fill="#F89A05"/>
<path d="M77.7999 5.856C82.1439 5.856 85.2639 8.952 85.2639 13.224C85.2639 17.496 82.1439 20.592 77.7999 20.592C73.4559 20.592 70.3359 17.496 70.3359 13.224C70.3359 8.952 73.4559 5.856 77.7999 5.856ZM77.7999 9.504C75.7839 9.504 74.4639 11.064 74.4639 13.224C74.4639 15.384 75.7839 16.944 77.7999 16.944C79.8159 16.944 81.1359 15.384 81.1359 13.224C81.1359 11.064 79.8159 9.504 77.7999 9.504Z" fill="#F89A05"/>
<path d="M89.9029 20.256C88.7232 20.256 87.7669 19.2997 87.7669 18.12V8.328C87.7669 7.14832 88.7232 6.192 89.9029 6.192H90.5989C91.3942 6.192 92.0389 6.83671 92.0389 7.632C92.8789 6.504 94.1749 5.856 95.9749 5.856C97.0835 5.856 97.7952 6.85215 97.7546 7.96004L97.7304 8.62037C97.6879 9.77937 96.8444 9.55166 95.6869 9.624C93.4069 9.624 92.0389 10.92 92.0389 13.056V18.12C92.0389 19.2997 91.0826 20.256 89.9029 20.256Z" fill="#F89A05"/>
<path d="M102.044 20.256C100.864 20.256 99.9075 19.2997 99.9075 18.12V8.328C99.9075 7.14832 100.864 6.192 102.044 6.192H103.147C103.717 6.192 104.179 6.65426 104.179 7.22448C104.179 7.32388 104.309 7.36755 104.373 7.29141C105.181 6.32814 106.193 5.856 107.635 5.856C109.411 5.856 110.876 6.576 111.812 7.872C112.868 6.528 114.355 5.856 116.492 5.856C119.731 5.856 121.892 8.208 121.892 12.12V18.12C121.892 19.2997 120.935 20.256 119.756 20.256C118.576 20.256 117.619 19.2997 117.619 18.12V12.84C117.619 10.704 116.803 9.528 115.243 9.528C113.852 9.528 113.107 10.632 113.035 12.624V18.12C113.035 19.2997 112.079 20.256 110.9 20.256C109.72 20.256 108.764 19.2997 108.764 18.12V12.84C108.764 10.704 107.947 9.528 106.387 9.528C104.995 9.528 104.251 10.632 104.179 12.624V18.12C104.179 19.2997 103.223 20.256 102.044 20.256Z" fill="#F89A05"/>
</svg>
