<svg width="48" height="48" viewBox="0 0 48 48" fill="none" xmlns="http://www.w3.org/2000/svg">
<circle cx="24" cy="24" r="23.5" stroke="#F2F2F2"/>
<g clip-path="url(#clip0_1240_71019)">
<path fill-rule="evenodd" clip-rule="evenodd" d="M33.0004 24.2048C33.0011 23.5873 32.9453 22.971 32.8334 22.3633H24.1816V25.8446H29.1244C29.0218 26.3947 28.8065 26.9187 28.4916 27.385C28.1767 27.8513 27.7686 28.2502 27.2919 28.5577V30.8164H30.2595C31.9959 29.2496 32.9978 26.9417 32.9978 24.2031L33.0004 24.2048Z" fill="#3E82F1"/>
<path fill-rule="evenodd" clip-rule="evenodd" d="M24.1836 33.0008C26.6632 33.0008 28.7422 32.1953 30.2615 30.821L27.2939 28.5623C26.4712 29.1024 25.4191 29.422 24.1836 29.422C21.7914 29.422 19.7669 27.8382 19.0453 25.7109H15.9766V28.0434C16.741 29.5342 17.9134 30.7873 19.3627 31.6627C20.812 32.5381 22.4811 33.0014 24.1836 33.0008Z" fill="#32A753"/>
<path fill-rule="evenodd" clip-rule="evenodd" d="M19.0455 25.7089C18.6614 24.6002 18.6614 23.3982 19.0455 22.2895V19.957H15.9767C15.3345 21.2115 15 22.5957 15 23.9992C15 25.4027 15.3345 26.7869 15.9767 28.0413L19.0455 25.7089Z" fill="#F9BB00"/>
<path fill-rule="evenodd" clip-rule="evenodd" d="M24.1839 18.5788C25.5327 18.5788 26.743 19.0333 27.6947 19.9252L30.3283 17.3435C28.7381 15.8911 26.6591 15 24.1856 15C22.4831 14.9994 20.8139 15.4627 19.3646 16.3381C17.9153 17.2135 16.743 18.4667 15.9785 19.9574L19.0473 22.2899C19.7689 20.1626 21.7934 18.5788 24.1856 18.5788H24.1839Z" fill="#E74133"/>
</g>
<defs>
<clipPath id="clip0_1240_71019">
<rect width="18" height="18" fill="white" transform="translate(15 15)"/>
</clipPath>
</defs>
</svg>
