<svg width="24" height="24" viewBox="0 0 24 24" fill="none" xmlns="http://www.w3.org/2000/svg">
<path d="M8.76953 8V5" stroke="black" stroke-linecap="round" stroke-linejoin="round"/>
<path d="M12 8V5" stroke="black" stroke-linecap="round" stroke-linejoin="round"/>
<path d="M15.2305 8V5" stroke="black" stroke-linecap="round" stroke-linejoin="round"/>
<path d="M17.9231 6.5H6.07692C5.48215 6.5 5 6.94772 5 7.5V17C5 17.5523 5.48215 18 6.07692 18H17.9231C18.5179 18 19 17.5523 19 17V7.5C19 6.94772 18.5179 6.5 17.9231 6.5Z" stroke="black" stroke-linecap="round" stroke-linejoin="round"/>
<path d="M18 20C19.6569 20 21 18.6569 21 17C21 15.3431 19.6569 14 18 14C16.3431 14 15 15.3431 15 17C15 18.6569 16.3431 20 18 20Z" fill="white" stroke="black" stroke-linecap="round" stroke-linejoin="round"/>
<path d="M18 15.8457V16.9995L19.1723 18.3657" stroke="black" stroke-linecap="round" stroke-linejoin="round"/>
</svg>
