<svg width="24" height="24" viewBox="0 0 24 24" fill="none" xmlns="http://www.w3.org/2000/svg">
<path d="M14.5 13C16.9853 13 19 12.1046 19 11C19 9.89543 16.9853 9 14.5 9C12.0147 9 10 9.89543 10 11C10 12.1046 12.0147 13 14.5 13Z" stroke="black" stroke-linecap="round" stroke-linejoin="round"/>
<path d="M10 11V17C10 18.1 12 19 14.5 19C17 19 19 18.1 19 17V11" stroke="black" stroke-linecap="round" stroke-linejoin="round"/>
<path d="M19 14C19 15.1 17 16 14.5 16C12 16 10 15.1 10 14" stroke="black" stroke-linecap="round" stroke-linejoin="round"/>
<path d="M14.4 7.00878C13.2315 6.28765 11.8713 5.93889 10.5 6.00878C8.01 6.00878 6 6.90878 6 8.00878C6 8.59878 6.58 9.12878 7.5 9.50878" stroke="black" stroke-linecap="round" stroke-linejoin="round"/>
<path d="M7.5 15.5098C6.58 15.1298 6 14.5998 6 14.0098V8.00977" stroke="black" stroke-linecap="round" stroke-linejoin="round"/>
<path d="M7.5 12.5098C6.58 12.1298 6 11.5998 6 11.0098" stroke="black" stroke-linecap="round" stroke-linejoin="round"/>
</svg>
