<svg width="24" height="24" viewBox="0 0 24 24" fill="none" xmlns="http://www.w3.org/2000/svg">
<path fill-rule="evenodd" clip-rule="evenodd" d="M6.11272 7.119C4.72438 8.50735 4.60918 10.7271 5.91401 12.1941C6.45806 12.8058 7.02848 13.4256 7.53502 13.9321C8.73909 15.1362 10.5828 16.7012 11.4376 17.4151C11.5722 17.5275 11.739 17.5775 11.9022 17.567C12.0656 17.5776 12.2326 17.5277 12.3673 17.4152C13.222 16.7014 15.0657 15.1366 16.2697 13.9326C16.7764 13.4259 17.347 12.8059 17.8912 12.1941C19.1959 10.7269 19.0807 8.50727 17.6924 7.11897C16.2004 5.62699 13.7814 5.62701 12.2894 7.11902L11.9025 7.50591L11.5156 7.11895C10.0236 5.62701 7.60469 5.62703 6.11272 7.119Z" fill="#F89A05"/>
</svg>
