<svg width="24" height="24" viewBox="0 0 24 24" fill="none" xmlns="http://www.w3.org/2000/svg">
<path d="M18 11.9446C18.0009 11.8165 17.9751 11.6896 17.9242 11.572C17.8733 11.4544 17.7986 11.3487 17.7046 11.2615L12 6L6.29541 11.2615C6.20146 11.3487 6.12668 11.4544 6.07582 11.572C6.02497 11.6896 5.99915 11.8165 6.00002 11.9446V17.0769C6.00002 17.3217 6.09727 17.5566 6.27038 17.7296C6.44349 17.9027 6.67828 18 6.92309 18H17.0769C17.3217 18 17.5565 17.9027 17.7296 17.7296C17.9028 17.5566 18 17.3217 18 17.0769V11.9446Z" stroke="#1F1F1F" stroke-width="1.5" stroke-linecap="round" stroke-linejoin="round"/>
<path d="M12 18.0009V14.3086" stroke="#1F1F1F" stroke-width="1.5" stroke-linecap="round" stroke-linejoin="round"/>
</svg>
