<svg width="24" height="24" viewBox="0 0 24 24" fill="none" xmlns="http://www.w3.org/2000/svg">
<path fill-rule="evenodd" clip-rule="evenodd" d="M15 17.0769V15.2308V12.75H17.0817L16.4913 13.295C16.1869 13.576 16.1679 14.0505 16.4489 14.3548C16.7299 14.6592 17.2043 14.6782 17.5087 14.3972L19.5035 12.5559C19.6549 12.4187 19.75 12.2204 19.75 12V12C19.75 11.8286 19.6914 11.6637 19.5858 11.5316L17.5087 9.60271C17.2043 9.32176 16.7299 9.34074 16.4489 9.6451C16.1679 9.94947 16.1869 10.424 16.4913 10.7049L17.0818 11.25H15V8.76923V6.92308C15 6.67826 14.8946 6.44347 14.7071 6.27036C14.5196 6.09725 14.2652 6 14 6H7C6.73478 6 6.48043 6.09725 6.29289 6.27036C6.10536 6.44347 6 6.67826 6 6.92308V17.0769C6 17.3217 6.10536 17.5566 6.29289 17.7296C6.48043 17.9027 6.73478 18 7 18H14C14.2652 18 14.5196 17.9027 14.7071 17.7296C14.8946 17.5566 15 17.3217 15 17.0769ZM15 11.25H12C11.5858 11.25 11.25 11.5858 11.25 12C11.25 12.4142 11.5858 12.75 12 12.75H15V11.25Z" fill="white"/>
</svg>
