<svg width="16" height="16" viewBox="0 0 16 16" fill="none" xmlns="http://www.w3.org/2000/svg">
<path d="M3.23442 13.8482C2.74554 13.6455 2.35449 13.2545 2.15176 12.7656L2.61362 12.574C2.54057 12.3979 2.5 12.2043 2.5 12V11H2V9H2.5V7H2V5H2.5V4C2.5 3.79569 2.54057 3.60212 2.61362 3.42595L2.15176 3.23442C2.35449 2.74554 2.74554 2.35449 3.23442 2.15176L3.42595 2.61362C3.60212 2.54057 3.79569 2.5 4 2.5H5V2H7V2.5H9V2H11V2.5H12C12.2043 2.5 12.3979 2.54057 12.574 2.61362L12.7656 2.15176C13.2545 2.35449 13.6455 2.74554 13.8482 3.23442L13.3864 3.42595C13.4594 3.60212 13.5 3.79569 13.5 4V5H14V7H13.5V9H14V11H13.5V12C13.5 12.2043 13.4594 12.3979 13.3864 12.574L13.8482 12.7656C13.6455 13.2545 13.2545 13.6455 12.7656 13.8482L12.574 13.3864C12.3979 13.4594 12.2043 13.5 12 13.5H11V14H9V13.5H7V14H5V13.5H4C3.79569 13.5 3.60212 13.4594 3.42595 13.3864L3.23442 13.8482Z" stroke="#F89A05" stroke-dasharray="2 2"/>
</svg>
