<svg width="36" height="36" viewBox="0 0 36 36" fill="none" xmlns="http://www.w3.org/2000/svg">
<path d="M2.89832 31.63C2.51522 31.0577 2.23994 30.4072 2.10151 29.7075L2.59201 29.6105C2.5317 29.3056 2.5 28.9901 2.5 28.6667V27.6H2V25.4667H2.5V23.3333H2V21.2H2.5V19.0667H2V16.9333H2.5V14.8H2V12.6667H2.5V10.5333H2V8.4H2.5V7.33333C2.5 7.0099 2.5317 6.69436 2.59201 6.3895L2.10152 6.29247C2.23994 5.59276 2.51523 4.94227 2.89832 4.37005L3.3138 4.64821C3.66682 4.12091 4.12091 3.66682 4.64821 3.3138L4.37005 2.89832C4.94227 2.51522 5.59276 2.23994 6.29247 2.10151L6.3895 2.59201C6.69436 2.5317 7.0099 2.5 7.33333 2.5H8.4V2H10.5333V2.5H12.6667V2H14.8V2.5H16.9333V2H19.0667V2.5H21.2V2H23.3333V2.5H25.4667V2H27.6V2.5H28.6667C28.9901 2.5 29.3056 2.5317 29.6105 2.59201L29.7075 2.10152C30.4072 2.23994 31.0577 2.51523 31.63 2.89832L31.3518 3.3138C31.8791 3.66682 32.3332 4.12091 32.6862 4.64821L33.1017 4.37005C33.4848 4.94227 33.7601 5.59276 33.8985 6.29247L33.408 6.3895C33.4683 6.69436 33.5 7.0099 33.5 7.33333V8.4H34V10.5333H33.5V12.6667H34V14.8H33.5V16.9333H34V19.0667H33.5V21.2H34V23.3333H33.5V25.4667H34V27.6H33.5V28.6667C33.5 28.9901 33.4683 29.3056 33.408 29.6105L33.8985 29.7075C33.7601 30.4072 33.4848 31.0577 33.1017 31.63L32.6862 31.3518C32.3332 31.8791 31.8791 32.3332 31.3518 32.6862L31.63 33.1017C31.0577 33.4848 30.4072 33.7601 29.7075 33.8985L29.6105 33.408C29.3056 33.4683 28.9901 33.5 28.6667 33.5H27.6V34H25.4667V33.5H23.3333V34H21.2V33.5H19.0667V34H16.9333V33.5H14.8V34H12.6667V33.5H10.5333V34H8.4V33.5H7.33333C7.0099 33.5 6.69436 33.4683 6.3895 33.408L6.29247 33.8985C5.59276 33.7601 4.94227 33.4848 4.37005 33.1017L4.64821 32.6862C4.12091 32.3332 3.66682 31.8791 3.3138 31.3518L2.89832 31.63Z" stroke="#F89A05" stroke-dasharray="2 2"/>
</svg>
