<svg width="24" height="24" viewBox="0 0 24 24" fill="none" xmlns="http://www.w3.org/2000/svg">
<path d="M10.1979 7.75L10.6279 6.64C10.7005 6.45206 10.828 6.29041 10.994 6.17621C11.1599 6.06201 11.3565 6.00059 11.5579 6H12.3779C12.5794 6.00059 12.7759 6.06201 12.9419 6.17621C13.1078 6.29041 13.2354 6.45206 13.3079 6.64L13.7379 7.75L15.1979 8.59L16.3779 8.41C16.5744 8.38333 16.7744 8.41567 16.9525 8.50292C17.1305 8.59017 17.2786 8.72838 17.3779 8.9L17.7779 9.6C17.8804 9.77435 17.9277 9.97568 17.9134 10.1774C17.8991 10.3792 17.824 10.5718 17.6979 10.73L16.9679 11.66V13.34L17.7179 14.27C17.844 14.4282 17.9191 14.6208 17.9334 14.8226C17.9477 15.0243 17.9004 15.2256 17.7979 15.4L17.3979 16.1C17.2986 16.2716 17.1505 16.4098 16.9725 16.4971C16.7944 16.5843 16.5944 16.6167 16.3979 16.59L15.2179 16.41L13.7579 17.25L13.3279 18.36C13.2554 18.5479 13.1278 18.7096 12.9619 18.8238C12.7959 18.938 12.5994 18.9994 12.3979 19H11.5579C11.3565 18.9994 11.1599 18.938 10.994 18.8238C10.828 18.7096 10.7005 18.5479 10.6279 18.36L10.1979 17.25L8.73794 16.41L7.55794 16.59C7.36146 16.6167 7.16148 16.5843 6.98342 16.4971C6.80537 16.4098 6.65727 16.2716 6.55794 16.1L6.15794 15.4C6.05544 15.2256 6.00822 15.0243 6.0225 14.8226C6.03678 14.6208 6.1119 14.4282 6.23794 14.27L6.96794 13.34V11.66L6.21794 10.73C6.0919 10.5718 6.01678 10.3792 6.0025 10.1774C5.98822 9.97568 6.03544 9.77435 6.13794 9.6L6.53794 8.9C6.63727 8.72838 6.78537 8.59017 6.96342 8.50292C7.14148 8.41567 7.34146 8.38333 7.53794 8.41L8.71794 8.59L10.1979 7.75ZM9.96794 12.5C9.96794 12.8956 10.0852 13.2822 10.305 13.6111C10.5248 13.94 10.8371 14.1964 11.2026 14.3478C11.568 14.4991 11.9702 14.5387 12.3581 14.4616C12.7461 14.3844 13.1024 14.1939 13.3822 13.9142C13.6619 13.6345 13.8523 13.2781 13.9295 12.8902C14.0067 12.5022 13.9671 12.1001 13.8157 11.7346C13.6643 11.3692 13.408 11.0568 13.0791 10.8371C12.7502 10.6173 12.3635 10.5 11.9679 10.5C11.4375 10.5 10.9288 10.7107 10.5537 11.0858C10.1787 11.4609 9.96794 11.9696 9.96794 12.5Z" stroke="#1F1F1F" stroke-width="1.5" stroke-linecap="round" stroke-linejoin="round"/>
</svg>
